<svg width="242" height="33" viewBox="0 0 242 33" fill="none" xmlns="http://www.w3.org/2000/svg">
<g id="realestate_com_au_logo 1" clip-path="url(#clip0_10428_32015)">
<path id="Vector" d="M0.566631 16.415C0.549865 19.5794 1.47183 22.6778 3.21595 25.3182C4.96007 27.9587 7.448 30.0227 10.3651 31.2491C13.2823 32.4756 16.4976 32.8096 19.6045 32.2087C22.7114 31.6078 25.5704 30.0991 27.8199 27.8734C30.0693 25.6477 31.6083 22.8049 32.2422 19.7046C32.876 16.6042 32.5763 13.3856 31.3808 10.4556C30.1854 7.52556 28.148 5.01584 25.5262 3.24377C22.9044 1.47169 19.8161 0.516856 16.6516 0.5H16.5666C12.3411 0.510409 8.29029 2.18782 5.2944 5.16779C2.29851 8.14776 0.599548 12.1895 0.566631 16.415Z" fill="#E4002B"/>
<path id="Vector_2" d="M26.3384 14.8153L17.7934 6.26525C17.6361 6.10084 17.4472 5.96999 17.2379 5.8806C17.0287 5.79121 16.8035 5.74512 16.5759 5.74512C16.3484 5.74512 16.1232 5.79121 15.914 5.8806C15.7047 5.96999 15.5157 6.10084 15.3584 6.26525L6.81344 14.8153C6.56925 15.0536 6.40243 15.3598 6.33465 15.6942C6.26688 16.0286 6.3013 16.3757 6.43344 16.6903C6.5623 17.0081 6.78273 17.2805 7.06672 17.4728C7.35072 17.6651 7.68547 17.7686 8.02844 17.7702H9.24344V24.2302C9.24476 24.6913 9.4285 25.1331 9.75453 25.4592C10.0806 25.7852 10.5224 25.9689 10.9834 25.9703H22.1684C22.6295 25.9689 23.0713 25.7852 23.3973 25.4592C23.7234 25.1331 23.9071 24.6913 23.9084 24.2302V17.7702H25.1234C25.467 17.7683 25.8022 17.6647 26.0869 17.4725C26.3717 17.2803 26.5931 17.0081 26.7234 16.6903C26.8427 16.3732 26.8698 16.0289 26.8017 15.6972C26.7336 15.3654 26.573 15.0596 26.3384 14.8153ZM22.2384 16.9703V24.2302C22.2372 24.2577 22.2258 24.2837 22.2063 24.3031C22.1869 24.3226 22.1609 24.334 22.1334 24.3353H10.9834C10.956 24.334 10.93 24.3226 10.9105 24.3031C10.8911 24.2837 10.8797 24.2577 10.8784 24.2302V16.9703C10.8805 16.8646 10.8612 16.7597 10.8217 16.6617C10.7822 16.5637 10.7234 16.4747 10.6487 16.4C10.574 16.3253 10.485 16.2665 10.387 16.227C10.289 16.1875 10.1841 16.1682 10.0784 16.1702H8.02844C8.01026 16.1691 7.99313 16.1613 7.98025 16.1484C7.96737 16.1356 7.95962 16.1184 7.95844 16.1003C7.95619 16.0813 7.95816 16.062 7.96421 16.0438C7.97026 16.0257 7.98024 16.0091 7.99344 15.9953L16.5684 7.41525C16.6034 7.41525 16.6034 7.38025 16.6384 7.38025C16.6734 7.38025 16.6684 7.38025 16.7034 7.41525L25.2284 16.0003C25.2416 16.0141 25.2516 16.0307 25.2577 16.0488C25.2637 16.067 25.2657 16.0863 25.2634 16.1053C25.2623 16.1234 25.2545 16.1406 25.2416 16.1534C25.2287 16.1663 25.2116 16.1741 25.1934 16.1753H23.1434C23.0308 16.1627 22.9167 16.1738 22.8086 16.2079C22.7004 16.2419 22.6006 16.2981 22.5154 16.3729C22.4303 16.4478 22.3616 16.5395 22.3139 16.6424C22.2662 16.7452 22.2405 16.8569 22.2384 16.9703Z" fill="white"/>
<path id="Vector_3" d="M78.4833 23.77C76.0133 23.77 74.5883 22.27 74.5883 19.805V5.5H77.9583V19.585C77.9583 20.42 78.3433 20.875 79.1433 20.875H80.1183V23.76L78.4833 23.77ZM45.7183 10.03V13.615H44.2883C42.7233 13.615 41.6133 14.725 41.6133 16.71V23.735H38.2383V10.345H41.6133V12.255C41.8902 11.5817 42.3627 11.007 42.9697 10.605C43.5767 10.203 44.2903 9.99226 45.0183 10C45.2505 10.0274 45.4845 10.0375 45.7183 10.03ZM58.9333 17.82H49.4733C49.6833 20.185 50.9333 21.23 52.6383 21.23C54.2383 21.23 55.3883 20.5 56.0833 18.69L58.9333 19.735C58.54 21.0453 57.7214 22.1872 56.6068 22.9803C55.4922 23.7735 54.1451 24.1728 52.7783 24.115C48.8133 24.115 46.0283 21.3 46.0283 17.09C46.0283 12.88 48.7433 10.065 52.6033 10.065C56.3233 10.065 58.9333 12.885 58.9333 17.065V17.82ZM49.5683 15.525H55.5683C55.1883 13.615 54.1433 12.78 52.6483 12.78C50.9683 12.745 49.9233 13.65 49.5683 15.525ZM72.4183 23.77V15.315C72.4183 11.7 69.6033 10.03 66.4183 10.03C63.7733 10.03 61.4183 11.145 60.5033 13.995L63.2883 15.18C63.4682 14.5325 63.8634 13.9656 64.4088 13.573C64.9542 13.1803 65.6171 12.9852 66.2883 13.02C68.0283 13.02 69.0683 13.855 69.0683 15.665V16.885C68.093 16.0625 66.8427 15.6392 65.5683 15.7C62.2633 15.7 60.1433 17.335 60.1433 19.875C60.1433 22.515 62.1933 24.085 65.3233 24.085C67.0983 24.085 68.4883 23.525 69.2883 22.45V23.77H72.4183ZM66.3683 18.065C68.0033 18.065 69.1133 18.725 69.1133 19.875C69.1133 21.025 68.0033 21.65 66.3683 21.65C64.7333 21.65 63.6183 21.02 63.6183 19.875C63.6183 18.73 64.7083 18.065 66.3433 18.065H66.3683ZM84.1733 17.82H93.6383C93.6733 17.5662 93.6733 17.3088 93.6383 17.055C93.6383 12.885 91.0283 10.055 87.3083 10.055C83.4433 10.055 80.7333 12.905 80.7333 17.08C80.7333 21.255 83.5133 24.105 87.4783 24.105C88.8459 24.1639 90.1942 23.7652 91.3098 22.9719C92.4254 22.1787 93.2448 21.0361 93.6383 19.725L90.7833 18.68C90.0883 20.49 88.9433 21.22 87.3433 21.22C85.6133 21.23 84.3583 20.185 84.1483 17.82H84.1733ZM90.2633 15.525H84.2633C84.6133 13.65 85.6583 12.745 87.3283 12.78C88.8133 12.78 89.8883 13.615 90.2383 15.525H90.2633ZM94.6783 19.63L97.3933 18.725C97.7783 20.5 99.1333 21.37 100.838 21.37C102.368 21.37 103.273 20.87 103.273 20.05C103.273 19.23 102.543 18.935 100.908 18.515L99.5833 18.205C96.4883 17.44 95.1683 16.15 95.1683 14.03C95.1683 11.63 97.2883 10.03 100.558 10.03C103.688 10.03 106.018 11.665 106.368 14.38L103.568 15.11C103.293 13.475 102.038 12.78 100.568 12.78C99.2483 12.78 98.3783 13.28 98.3783 13.96C98.3783 14.83 99.3783 15.11 100.953 15.49L102.273 15.84C105.123 16.5 106.518 17.84 106.518 19.91C106.518 22.38 104.253 24.085 100.848 24.085C97.9583 24.085 95.3833 22.69 94.6533 19.63H94.6783ZM112.708 13H115.708V10.36H112.708V5.905L109.333 7.75V10.325H106.898V13H109.333V19.09C109.333 21.94 111.003 23.75 113.833 23.75H115.678V20.865H114.253C113.208 20.865 112.688 20.2 112.688 18.915L112.708 13ZM128.848 15.295V23.75H125.718V22.45C124.918 23.525 123.523 24.085 121.753 24.085C118.618 24.085 116.568 22.515 116.568 19.875C116.568 17.335 118.688 15.7 121.993 15.7C123.27 15.6247 124.525 16.0498 125.493 16.885V15.665C125.493 13.855 124.448 13.02 122.708 13.02C122.037 12.9862 121.375 13.1816 120.83 13.5741C120.284 13.9666 119.889 14.533 119.708 15.18L116.918 14C117.818 11.15 120.188 10.035 122.828 10.035C126.068 10.03 128.848 11.7 128.848 15.315V15.295ZM125.568 19.875C125.568 18.725 124.453 18.065 122.783 18.065C121.113 18.065 120.003 18.725 120.003 19.875C120.003 21.025 121.113 21.65 122.783 21.65C124.453 21.65 125.568 21 125.568 19.875ZM135.568 13H138.568V10.36H135.568V5.905L132.193 7.75V10.325H129.758V13H132.193V19.09C132.193 21.94 133.863 23.75 136.693 23.75H138.568V20.865H137.143C136.103 20.865 135.578 20.2 135.578 18.915L135.568 13ZM152.228 17.8H142.758C142.968 20.165 144.218 21.21 145.923 21.21C147.523 21.21 148.673 20.48 149.368 18.67L152.218 19.715C151.83 21.029 151.015 22.1758 149.9 22.973C148.786 23.7702 147.437 24.1722 146.068 24.115C142.103 24.115 139.323 21.3 139.323 17.09C139.323 12.88 142.033 10.065 145.893 10.065C149.618 10.065 152.223 12.885 152.223 17.065L152.228 17.8ZM142.838 15.505H148.838C148.488 13.595 147.413 12.76 145.913 12.76C144.253 12.745 143.213 13.65 142.828 15.525L142.838 15.505ZM155.673 19.54C155.223 19.532 154.782 19.6582 154.404 19.9025C154.026 20.1467 153.729 20.4979 153.552 20.9113C153.374 21.3247 153.324 21.7816 153.407 22.2237C153.491 22.6658 153.704 23.0731 154.019 23.3937C154.335 23.7143 154.739 23.9336 155.18 24.0237C155.62 24.1138 156.078 24.0707 156.494 23.8997C156.91 23.7288 157.266 23.4378 157.516 23.0638C157.766 22.6898 157.899 22.2499 157.898 21.8C157.91 21.5031 157.861 21.2069 157.753 20.93C157.645 20.6532 157.48 20.4017 157.271 20.1913C157.061 19.981 156.81 19.8163 156.533 19.7076C156.256 19.599 155.96 19.5487 155.663 19.56L155.673 19.54ZM159.013 17.04C159.013 12.835 161.933 10.015 165.758 10.015C168.758 10.015 171.293 11.515 172.163 14.78L169.203 15.86C168.543 13.805 167.463 13.005 165.758 13.005C164.053 13.005 162.493 14.33 162.493 17.04C162.493 19.75 164.058 21.075 165.758 21.075C167.458 21.075 168.543 20.31 169.203 18.225L172.163 19.3C171.293 22.57 168.718 24.07 165.728 24.07C161.923 24.085 159.003 21.265 159.003 17.055L159.013 17.04ZM179.918 10.015C175.953 10.015 172.993 12.9 172.993 17.04C172.993 21.18 175.953 24.07 179.918 24.07C183.883 24.07 186.873 21.215 186.873 17.04C186.873 12.865 183.908 10.03 179.908 10.03L179.918 10.015ZM179.918 13.015C181.918 13.015 183.418 14.515 183.418 17.05C183.418 19.585 181.918 21.12 179.918 21.12C177.918 21.12 176.418 19.62 176.418 17.05C176.418 14.48 177.923 13 179.908 13L179.918 13.015ZM207.883 14.895V23.765H204.508V15.595C204.508 13.89 203.638 12.95 202.423 12.95C200.993 12.95 199.953 13.925 199.953 15.7V23.77H196.568V15.595C196.568 13.89 195.698 12.95 194.483 12.95C193.053 12.95 192.013 13.925 192.013 15.7V23.77H188.638V10.345H192.013V12C192.341 11.3696 192.842 10.8462 193.458 10.4918C194.074 10.1373 194.779 9.96669 195.488 10C196.271 9.97719 197.044 10.1734 197.72 10.5666C198.397 10.9597 198.951 11.5341 199.318 12.225C200.118 10.66 201.543 10 203.213 10C205.888 10.03 207.873 12 207.873 14.9L207.883 14.895ZM211.848 19.555C211.398 19.547 210.956 19.6732 210.579 19.9175C210.201 20.1617 209.904 20.5129 209.727 20.9263C209.549 21.3397 209.499 21.7966 209.582 22.2387C209.666 22.6808 209.879 23.0881 210.194 23.4087C210.51 23.7293 210.914 23.9486 211.355 24.0387C211.795 24.1288 212.253 24.0857 212.669 23.9147C213.085 23.7438 213.441 23.4528 213.691 23.0788C213.941 22.7048 214.074 22.2649 214.073 21.815C214.087 21.5168 214.039 21.219 213.932 20.9404C213.825 20.6618 213.661 20.4084 213.451 20.1964C213.241 19.9844 212.989 19.8184 212.712 19.7088C212.434 19.5993 212.137 19.5486 211.838 19.56L211.848 19.555ZM227.498 15.31V23.765H224.368V22.45C223.568 23.525 222.178 24.085 220.403 24.085C217.273 24.085 215.223 22.515 215.223 19.875C215.223 17.335 217.378 15.7 220.648 15.7C221.925 15.6247 223.18 16.0498 224.148 16.885V15.665C224.148 13.855 223.103 13.02 221.363 13.02C220.692 12.9852 220.029 13.1803 219.484 13.573C218.938 13.9656 218.543 14.5325 218.363 15.18L215.568 14C216.473 11.15 218.838 10.035 221.483 10.035C224.708 10.03 227.488 11.7 227.488 15.315L227.498 15.31ZM224.193 19.87C224.193 18.72 223.083 18.06 221.413 18.06C219.743 18.06 218.628 18.72 218.628 19.87C218.628 21.02 219.743 21.645 221.413 21.645C223.083 21.645 224.183 21 224.183 19.875L224.193 19.87ZM229.568 10.345V18.38C229.568 21.995 232.143 24.085 235.568 24.085C238.993 24.085 241.483 21.96 241.483 18.38V10.345H238.073V18.17C238.073 20.17 237.028 21.09 235.533 21.09C234.038 21.09 232.998 20.185 232.998 18.17V10.345H229.568Z" fill="#3D3B40"/>
</g>
<defs>
<clipPath id="clip0_10428_32015">
<rect width="240.87" height="32" fill="white" transform="translate(0.564941 0.5)"/>
</clipPath>
</defs>
</svg>
